<svg xmlns="http://www.w3.org/2000/svg" version="1.1" xmlns:xlink="http://www.w3.org/1999/xlink" xmlns:svgjs="http://svgjs.dev/svgjs" width="1500" height="1500" viewBox="0 0 1500 1500"><rect width="1500" height="1500" fill="#ffffff"></rect><g transform="matrix(0.6666666666666666,0,0,0.6666666666666666,249.39393939393938,495.51357800723144)"><svg viewBox="0 0 396 201" data-background-color="#ffffff" preserveAspectRatio="xMidYMid meet" height="761" width="1500" xmlns="http://www.w3.org/2000/svg" xmlns:xlink="http://www.w3.org/1999/xlink"><g id="tight-bounds" transform="matrix(1,0,0,1,0.2400000000000091,0.32477822709560655)"><svg viewBox="0 0 395.52 200.3504435458088" height="200.3504435458088" width="395.52"><g><svg viewBox="0 0 779.6839999093431 394.94851134558866" height="200.3504435458088" width="395.52"><g><rect width="22.154981908537728" height="394.94851134558866" x="329.86073991879914" y="0" fill="#000000" opacity="1" stroke-width="0" stroke="transparent" fill-opacity="1" class="rect-yte-0" data-fill-palette-color="primary" rx="1%" id="yte-0" data-palette-color="#0e5ddd"></rect></g><g transform="matrix(1,0,0,1,410.01305666644083,32.912375945465726)"><svg viewBox="0 0 369.67094324290224 329.1237594546572" height="329.1237594546572" width="369.67094324290224"><g id="textblocktransform"><svg viewBox="0 0 369.67094324290224 329.1237594546572" height="329.1237594546572" width="369.67094324290224" id="textblock"><g><svg viewBox="0 0 369.67094324290224 245.672304" height="245.672304" width="369.67094324290224"><g transform="matrix(1,0,0,1,0,0)"><svg width="369.67094324290224" viewBox="4.45 -31.05 47.699999999999996 31.7" height="245.672304" data-palette-color="#0e5ddd"><path d="M8.5-27.1L8.5-14.25 13.35-14.25Q17.35-14.25 19.55-15.93 21.75-17.6 21.75-21L21.75-21Q21.75-24.4 19.63-25.98 17.5-27.55 13.55-27.55L13.55-27.55Q12.2-27.55 10.88-27.43 9.55-27.3 8.5-27.1L8.5-27.1ZM13.6-10.85L13.6-10.85 4.45-10.85 4.45-28.2Q4.45-29 4.88-29.43 5.3-29.85 6.1-30.1L6.1-30.1Q7.55-30.55 9.63-30.75 11.7-30.95 13.65-30.95L13.65-30.95Q20-30.95 22.93-28.28 25.85-25.6 25.85-21.05L25.85-21.05Q25.85-17.95 24.53-15.65 23.2-13.35 20.5-12.1 17.8-10.85 13.6-10.85ZM4.45-1.6L4.45-12.8 8.55-12.8 8.55-0.1Q8.25 0 7.75 0.13 7.25 0.25 6.65 0.25L6.65 0.25Q5.55 0.25 5-0.2 4.45-0.65 4.45-1.6L4.45-1.6ZM41.2-2.75L41.2-2.75 41.2-2.75Q44.55-2.75 46.27-4.28 48-5.8 48-8.2L48-8.2Q48-10.25 46.67-11.58 45.35-12.9 42.5-13.75L42.5-13.75 38.15-15.05Q36.05-15.7 34.5-16.73 32.95-17.75 32.12-19.28 31.3-20.8 31.3-22.85L31.3-22.85Q31.3-26.7 34.1-28.88 36.9-31.05 41.55-31.05L41.55-31.05Q44.25-31.05 46.37-30.48 48.5-29.9 49.72-29 50.95-28.1 50.95-27.1L50.95-27.1Q50.95-26.45 50.6-25.93 50.25-25.4 49.7-25.1L49.7-25.1Q48.45-26.1 46.32-26.85 44.2-27.6 41.7-27.6L41.7-27.6Q38.8-27.6 37.1-26.33 35.4-25.05 35.4-22.85L35.4-22.85Q35.4-21.1 36.62-20 37.85-18.9 40.6-18.1L40.6-18.1 43.65-17.2Q47.6-16.1 49.87-14 52.15-11.9 52.15-8.2L52.15-8.2Q52.15-4.25 49.27-1.8 46.4 0.65 41.2 0.65L41.2 0.65Q38.15 0.65 35.87-0.03 33.6-0.7 32.32-1.73 31.05-2.75 31.05-3.75L31.05-3.75Q31.05-4.6 31.57-5.18 32.1-5.75 32.8-6L32.8-6Q33.95-4.9 36.05-3.83 38.15-2.75 41.2-2.75Z" opacity="1" transform="matrix(1,0,0,1,0,0)" fill="#000000" class="wordmark-text-0" data-fill-palette-color="primary" id="text-0"></path></svg></g></svg></g><g transform="matrix(1,0,0,1,0,303.669638839104)"><svg viewBox="0 0 217.03381077790795 25.45412061555319" height="25.45412061555319" width="217.03381077790795"><g transform="matrix(1,0,0,1,0,0)"><svg width="217.03381077790795" viewBox="0.27 -31.62 353.83000000000004 41.51" height="25.45412061555319" data-palette-color="#0e5ddd"><path d="M28.91-24.46L17.77 0.46 16.5 0.46 5-24.95Q4.39-26.29 3.31-26.97 2.22-27.64 0.27-27.81L0.27-27.81 0.27-28.54Q1.54-28.52 3.08-28.47 4.61-28.42 6.23-28.42L6.23-28.42Q8.54-28.42 10.34-28.47 12.13-28.52 13.18-28.54L13.18-28.54 13.18-27.81Q9.89-27.73 9.13-26.99 8.37-26.25 9.28-24.24L9.28-24.24 18.46-3.03 25.71-19.26Q27.64-23.56 26.66-25.71 25.68-27.86 22.53-27.81L22.53-27.81 22.53-28.54Q23.73-28.54 25.39-28.48 27.05-28.42 28.83-28.42L28.83-28.42Q29.91-28.42 30.9-28.45 31.88-28.49 33.74-28.54L33.74-28.54 33.74-27.81Q31.93-27.61 30.81-26.89 29.69-26.17 28.91-24.46L28.91-24.46ZM34.98 0L34.98 0 34.98-0.76Q36.79-0.81 37.51-1.39 38.23-1.98 38.23-3.66L38.23-3.66 38.23-16.48Q38.23-17.99 37.5-18.88 36.77-19.78 34.98-20.02L34.98-20.02 34.98-20.78Q35.76-20.7 36.44-20.68 37.11-20.65 37.72-20.65L37.72-20.65Q40.21-20.65 41.87-21.22L41.87-21.22 41.87-3.66Q41.87-1.98 42.6-1.39 43.33-0.81 45.16-0.76L45.16-0.76 45.16 0Q44.43-0.05 42.98-0.11 41.53-0.17 40.09-0.17L40.09-0.17Q38.64-0.17 37.18-0.11 35.72-0.05 34.98 0ZM40.26-25.71L40.26-25.71Q39.28-25.71 38.6-26.48 37.91-27.25 37.91-28.27L37.91-28.27Q37.91-29.32 38.6-30.05 39.28-30.79 40.26-30.79L40.26-30.79Q41.18-30.79 41.87-30.05 42.55-29.32 42.55-28.27L42.55-28.27Q42.55-27.25 41.87-26.48 41.18-25.71 40.26-25.71ZM57.27 0.56L57.27 0.56Q53.24 0.56 50.79-2.33 48.33-5.22 48.33-10.08L48.33-10.08Q48.33-13.43 49.51-15.95 50.68-18.48 52.79-19.91 54.9-21.34 57.71-21.34L57.71-21.34Q60.69-21.34 62.71-19.81 64.74-18.29 64.74-15.97L64.74-15.97Q64.74-14.4 64.09-13.35 63.45-12.3 62.37-12.3L62.37-12.3Q61.49-12.3 60.94-12.83 60.4-13.35 60.4-14.26L60.4-14.26Q60.4-15.21 61.01-16.36 61.62-17.5 61.62-18.63L61.62-18.63Q61.62-19.48 60.64-19.93 59.66-20.39 58.22-20.39L58.22-20.39Q55.34-20.39 53.78-17.72 52.22-15.06 52.22-10.4L52.22-10.4Q52.22-5.79 53.83-3.27 55.44-0.76 58.42-0.76L58.42-0.76Q60.44-0.76 61.97-1.68 63.5-2.61 64.33-4.93L64.33-4.93 65.03-4.13Q64.2-1.76 62.14-0.6 60.08 0.56 57.27 0.56ZM74.99 0.56L74.99 0.56Q72.5 0.56 71.43-0.9 70.35-2.37 70.35-5.69L70.35-5.69 70.35-19.97 67.01-19.97 67.01-20.73 70.35-20.73 70.35-26.88Q71.31-26.86 72.23-27.04 73.16-27.22 73.99-27.47L73.99-27.47 73.99-20.73 78.85-20.73 78.85-19.97 73.99-19.97 73.99-3.03Q73.99-1.83 74.44-1.26 74.89-0.68 75.99-0.68L75.99-0.68Q77.07-0.68 77.9-1.95 78.73-3.22 79.05-5.13L79.05-5.13 79.61-4.96Q78.68 0.56 74.99 0.56ZM92.69 0.56L92.69 0.56Q89.74 0.56 87.39-0.84 85.05-2.25 83.69-4.71 82.34-7.18 82.34-10.35L82.34-10.35Q82.34-13.48 83.68-15.97 85.02-18.46 87.37-19.9 89.71-21.34 92.69-21.34L92.69-21.34Q95.67-21.34 98.01-19.9 100.36-18.46 101.71-15.97 103.07-13.48 103.07-10.35L103.07-10.35Q103.07-7.25 101.71-4.77 100.36-2.29 98.01-0.87 95.67 0.56 92.69 0.56ZM92.69-0.17L92.69-0.17Q94.57-0.17 96.02-1.54 97.48-2.91 98.31-5.21 99.14-7.52 99.14-10.35L99.14-10.35Q99.14-13.21 98.31-15.53 97.48-17.85 96.02-19.21 94.57-20.58 92.69-20.58L92.69-20.58Q90.83-20.58 89.38-19.21 87.93-17.85 87.1-15.53 86.27-13.21 86.27-10.35L86.27-10.35Q86.27-7.5 87.1-5.19 87.93-2.88 89.38-1.53 90.83-0.17 92.69-0.17ZM106.7 0L106.7 0 106.7-0.76Q108.58-0.81 109.25-1.39 109.92-1.98 109.92-3.66L109.92-3.66 109.92-16.48Q109.92-18.29 109.19-19.08 108.46-19.87 106.7-20.02L106.7-20.02 106.7-20.78Q107.56-20.68 108.23-20.67 108.9-20.65 109.53-20.65L109.53-20.65Q110.46-20.65 111.51-20.78 112.56-20.9 113.56-21.22L113.56-21.22 113.56-18.51Q114.32-19.95 115.82-20.64 117.32-21.34 118.76-21.34L118.76-21.34Q120.28-21.34 121.18-20.28 122.08-19.21 122.08-17.53L122.08-17.53Q122.08-16.04 121.57-15.08 121.06-14.11 120.2-14.11L120.2-14.11Q119.4-14.11 118.9-14.59 118.4-15.06 118.4-15.89L118.4-15.89Q118.4-17.04 118.74-17.75 119.08-18.46 119.08-19.31L119.08-19.31Q119.08-20.07 117.88-20.07L117.88-20.07Q116.66-20.07 115.31-19.34 113.95-18.6 113.56-16.6L113.56-16.6 113.56-3.96Q113.56-2.22 114.5-1.51 115.44-0.81 117.74-0.76L117.74-0.76 117.74 0Q116.83-0.05 115.16-0.11 113.49-0.17 111.83-0.17L111.83-0.17Q110.27-0.17 108.85-0.11 107.43-0.05 106.7 0ZM128.18 9.89L128.18 9.89Q126.65 9.89 125.73 8.87 124.81 7.86 124.81 6.15L124.81 6.15Q124.81 4.81 125.41 4 126.01 3.2 126.99 3.2L126.99 3.2Q127.69 3.2 128.09 3.65 128.48 4.1 128.48 4.79L128.48 4.79Q128.48 5.81 128.26 6.58 128.04 7.35 128.04 8.18L128.04 8.18Q128.04 9.01 128.77 9.01L128.77 9.01Q129.65 9.01 130.31 8.04 130.97 7.08 131.65 5.1L131.65 5.1 133.29 0.51 132.55 0.51 126.03-17.09Q125.5-18.53 124.88-19.24 124.25-19.95 123.2-19.97L123.2-19.97 123.2-20.75Q124.45-20.68 125.36-20.68 126.28-20.68 127.55-20.68L127.55-20.68Q129.36-20.68 130.44-20.68 131.53-20.68 132.65-20.75L132.65-20.75 132.65-19.97Q130.48-20.02 129.93-19.29 129.38-18.55 130.14-16.43L130.14-16.43 134.68-3.52 138.78-15.28Q139.32-16.8 139.63-17.81 139.95-18.82 139.3-19.36 138.66-19.9 136.26-19.97L136.26-19.97 136.26-20.75Q137.49-20.68 138.17-20.67 138.85-20.65 140.05-20.65L140.05-20.65Q140.83-20.65 141.84-20.65 142.86-20.65 143.47-20.75L143.47-20.75 143.47-19.97Q141.81-19.51 140.82-17.69 139.83-15.87 138.61-12.4L138.61-12.4 134.16 0.1 132.28 5.79Q131.6 7.81 130.64 8.85 129.67 9.89 128.18 9.89ZM164.21 0.56L164.21 0.56Q161.77 0.56 160.32-0.85 158.87-2.27 158.87-5L158.87-5Q158.87-6.96 159.61-8.11 160.36-9.25 161.55-9.88 162.75-10.5 164.12-10.85 165.48-11.21 166.75-11.54 168.02-11.87 168.89-12.44 169.76-13.01 169.95-14.09L169.95-14.09Q169.78-17.04 168.91-18.68 168.05-20.31 166.44-20.31L166.44-20.31Q164.87-20.31 163.71-19.84 162.55-19.36 162.55-18.55L162.55-18.55Q162.55-17.8 163.09-16.89 163.63-15.99 163.63-15.19L163.63-15.19Q163.63-14.43 163.13-13.99 162.63-13.55 161.8-13.55L161.8-13.55Q160.84-13.55 160.26-14.21 159.67-14.87 159.67-15.99L159.67-15.99Q159.67-17.43 160.7-18.65 161.72-19.87 163.48-20.61 165.24-21.34 167.39-21.34L167.39-21.34Q170.81-21.34 172.21-18.97 173.61-16.6 173.61-12.26L173.61-12.26 173.61-2.51Q173.61-0.61 174.78-0.61L174.78-0.61Q175.44-0.61 176.05-0.79 176.66-0.98 177.08-1.88L177.08-1.88 177.49-1.22Q176.59-0.12 175.72 0.22 174.86 0.56 173.49 0.56L173.49 0.56Q170.02 0.56 170.02-3.13L170.02-3.13Q168.97-1.42 167.53-0.43 166.09 0.56 164.21 0.56ZM165.87-1.17L165.87-1.17Q167.05-1.17 168.13-1.78 169.22-2.39 170-3.98L170-3.98 170-12.52Q170-12.92 170-13.31L170-13.31Q169.73-12.04 168.91-11.52 168.1-11.01 167.05-10.74 166-10.47 164.98-10.03 163.97-9.59 163.31-8.52 162.65-7.45 162.65-5.25L162.65-5.25Q162.65-3.25 163.52-2.21 164.38-1.17 165.87-1.17ZM185.94 0.56L185.94 0.56Q183.45 0.56 182.37-0.9 181.3-2.37 181.3-5.69L181.3-5.69 181.3-19.97 177.96-19.97 177.96-20.73 181.3-20.73 181.3-26.88Q182.25-26.86 183.18-27.04 184.11-27.22 184.94-27.47L184.94-27.47 184.94-20.73 189.8-20.73 189.8-19.97 184.94-19.97 184.94-3.03Q184.94-1.83 185.39-1.26 185.84-0.68 186.94-0.68L186.94-0.68Q188.01-0.68 188.84-1.95 189.67-3.22 189.99-5.13L189.99-5.13 190.55-4.96Q189.63 0.56 185.94 0.56ZM211.01 0.56L211.01 0.56Q208.57 0.56 207.11-0.85 205.66-2.27 205.66-5L205.66-5Q205.66-6.96 206.41-8.11 207.15-9.25 208.35-9.88 209.54-10.5 210.91-10.85 212.28-11.21 213.55-11.54 214.82-11.87 215.68-12.44 216.55-13.01 216.74-14.09L216.74-14.09Q216.57-17.04 215.71-18.68 214.84-20.31 213.23-20.31L213.23-20.31Q211.67-20.31 210.51-19.84 209.35-19.36 209.35-18.55L209.35-18.55Q209.35-17.8 209.88-16.89 210.42-15.99 210.42-15.19L210.42-15.19Q210.42-14.43 209.92-13.99 209.42-13.55 208.59-13.55L208.59-13.55Q207.64-13.55 207.05-14.21 206.47-14.87 206.47-15.99L206.47-15.99Q206.47-17.43 207.49-18.65 208.52-19.87 210.28-20.61 212.03-21.34 214.18-21.34L214.18-21.34Q217.6-21.34 219-18.97 220.41-16.6 220.41-12.26L220.41-12.26 220.41-2.51Q220.41-0.61 221.58-0.61L221.58-0.61Q222.24-0.61 222.85-0.79 223.46-0.98 223.87-1.88L223.87-1.88 224.29-1.22Q223.39-0.12 222.52 0.22 221.65 0.56 220.29 0.56L220.29 0.56Q216.82 0.56 216.82-3.13L216.82-3.13Q215.77-1.42 214.33-0.43 212.89 0.56 211.01 0.56ZM212.67-1.17L212.67-1.17Q213.84-1.17 214.93-1.78 216.01-2.39 216.79-3.98L216.79-3.98 216.79-12.52Q216.79-12.92 216.79-13.31L216.79-13.31Q216.53-12.04 215.71-11.52 214.89-11.01 213.84-10.74 212.79-10.47 211.78-10.03 210.76-9.59 210.1-8.52 209.45-7.45 209.45-5.25L209.45-5.25Q209.45-3.25 210.31-2.21 211.18-1.17 212.67-1.17ZM225.36 0L225.36 0 225.36-0.76Q227.26-0.81 228.02-1.39 228.78-1.98 228.78-3.66L228.78-3.66 228.78-26.88Q228.78-28.39 228.01-29.31 227.24-30.22 225.36-30.42L225.36-30.42 225.36-31.18Q226.14-31.1 226.83-31.08 227.51-31.05 228.19-31.05L228.19-31.05Q229.39-31.05 230.45-31.19 231.51-31.32 232.42-31.62L232.42-31.62 232.42-3.66Q232.42-1.98 233.17-1.39 233.93-0.81 235.83-0.76L235.83-0.76 235.83 0Q235.08-0.05 233.59-0.11 232.1-0.17 230.61-0.17L230.61-0.17Q229.12-0.17 227.63-0.11 226.14-0.05 225.36 0ZM237.47 0L237.47 0 237.47-0.76Q239.37-0.81 240.13-1.39 240.89-1.98 240.89-3.66L240.89-3.66 240.89-26.88Q240.89-28.39 240.12-29.31 239.35-30.22 237.47-30.42L237.47-30.42 237.47-31.18Q238.25-31.1 238.93-31.08 239.62-31.05 240.3-31.05L240.3-31.05Q241.5-31.05 242.56-31.19 243.62-31.32 244.52-31.62L244.52-31.62 244.52-3.66Q244.52-1.98 245.28-1.39 246.04-0.81 247.94-0.76L247.94-0.76 247.94 0Q247.18-0.05 245.7-0.11 244.21-0.17 242.72-0.17L242.72-0.17Q241.23-0.17 239.74-0.11 238.25-0.05 237.47 0ZM272.52 0.56L272.52 0.56Q268.49 0.56 266.04-2.33 263.59-5.22 263.59-10.08L263.59-10.08Q263.59-13.43 264.76-15.95 265.93-18.48 268.04-19.91 270.15-21.34 272.96-21.34L272.96-21.34Q275.94-21.34 277.97-19.81 279.99-18.29 279.99-15.97L279.99-15.97Q279.99-14.4 279.34-13.35 278.7-12.3 277.62-12.3L277.62-12.3Q276.74-12.3 276.2-12.83 275.65-13.35 275.65-14.26L275.65-14.26Q275.65-15.21 276.26-16.36 276.87-17.5 276.87-18.63L276.87-18.63Q276.87-19.48 275.89-19.93 274.91-20.39 273.47-20.39L273.47-20.39Q270.59-20.39 269.03-17.72 267.47-15.06 267.47-10.4L267.47-10.4Q267.47-5.79 269.08-3.27 270.69-0.76 273.67-0.76L273.67-0.76Q275.69-0.76 277.22-1.68 278.75-2.61 279.58-4.93L279.58-4.93 280.28-4.13Q279.45-1.76 277.39-0.6 275.33 0.56 272.52 0.56ZM294.98 0.56L294.98 0.56Q292.03 0.56 289.68-0.84 287.34-2.25 285.98-4.71 284.63-7.18 284.63-10.35L284.63-10.35Q284.63-13.48 285.97-15.97 287.31-18.46 289.66-19.9 292-21.34 294.98-21.34L294.98-21.34Q297.96-21.34 300.3-19.9 302.65-18.46 304-15.97 305.36-13.48 305.36-10.35L305.36-10.35Q305.36-7.25 304-4.77 302.65-2.29 300.3-0.87 297.96 0.56 294.98 0.56ZM294.98-0.17L294.98-0.17Q296.86-0.17 298.31-1.54 299.76-2.91 300.59-5.21 301.42-7.52 301.42-10.35L301.42-10.35Q301.42-13.21 300.59-15.53 299.76-17.85 298.31-19.21 296.86-20.58 294.98-20.58L294.98-20.58Q293.12-20.58 291.67-19.21 290.22-17.85 289.39-15.53 288.56-13.21 288.56-10.35L288.56-10.35Q288.56-7.5 289.39-5.19 290.22-2.88 291.67-1.53 293.12-0.17 294.98-0.17ZM317.05 0.56L317.05 0.56Q315.51 0.56 314.54 0.21 313.58-0.15 312.99-0.49 312.41-0.83 311.94-0.83L311.94-0.83Q311.53-0.83 311.13-0.54 310.72-0.24 310.55 0.46L310.55 0.46 309.82 0.46Q309.94 0.39 310-0.21 310.06-0.81 310.05-2.59 310.04-4.37 309.94-8.01L309.94-8.01 310.65-8.01Q311.14-4.42 312.48-2.31 313.82-0.2 316.39-0.2L316.39-0.2Q318.46-0.2 319.62-1.33 320.78-2.47 320.78-4.69L320.78-4.69Q320.78-6.71 319.92-7.78 319.05-8.84 316.73-9.52L316.73-9.52Q313.63-10.45 312.07-11.54 310.5-12.62 310.5-15.14L310.5-15.14Q310.5-18.02 312.14-19.68 313.78-21.34 316.36-21.34L316.36-21.34Q317.76-21.34 318.54-20.98 319.32-20.63 319.82-20.28 320.32-19.92 320.86-19.92L320.86-19.92Q321.64-19.92 322.08-21.22L322.08-21.22 322.76-21.22Q322.59-19.97 322.58-18.38 322.56-16.8 322.66-14.11L322.66-14.11 321.95-14.11Q321.73-17.11 320.33-18.82 318.93-20.53 316.83-20.53L316.83-20.53Q315.17-20.53 314.18-19.59 313.19-18.65 313.19-16.72L313.19-16.72Q313.19-14.87 314.35-14 315.51-13.13 318.1-12.35L318.1-12.35Q320.9-11.52 322.19-10.18 323.47-8.84 323.47-6.27L323.47-6.27Q323.47-3.03 321.75-1.23 320.03 0.56 317.05 0.56ZM333.79 0.56L333.79 0.56Q331.3 0.56 330.23-0.9 329.15-2.37 329.15-5.69L329.15-5.69 329.15-19.97 325.81-19.97 325.81-20.73 329.15-20.73 329.15-26.88Q330.11-26.86 331.03-27.04 331.96-27.22 332.79-27.47L332.79-27.47 332.79-20.73 337.65-20.73 337.65-19.97 332.79-19.97 332.79-3.03Q332.79-1.83 333.24-1.26 333.7-0.68 334.79-0.68L334.79-0.68Q335.87-0.68 336.7-1.95 337.53-3.22 337.85-5.13L337.85-5.13 338.41-4.96Q337.48 0.56 333.79 0.56ZM347.68 0.56L347.68 0.56Q346.14 0.56 345.18 0.21 344.22-0.15 343.63-0.49 343.04-0.83 342.58-0.83L342.58-0.83Q342.16-0.83 341.76-0.54 341.36-0.24 341.19 0.46L341.19 0.46 340.46 0.46Q340.58 0.39 340.64-0.21 340.7-0.81 340.69-2.59 340.68-4.37 340.58-8.01L340.58-8.01 341.29-8.01Q341.77-4.42 343.12-2.31 344.46-0.2 347.02-0.2L347.02-0.2Q349.1-0.2 350.26-1.33 351.42-2.47 351.42-4.69L351.42-4.69Q351.42-6.71 350.55-7.78 349.68-8.84 347.36-9.52L347.36-9.52Q344.26-10.45 342.7-11.54 341.14-12.62 341.14-15.14L341.14-15.14Q341.14-18.02 342.77-19.68 344.41-21.34 347-21.34L347-21.34Q348.39-21.34 349.17-20.98 349.95-20.63 350.45-20.28 350.95-19.92 351.49-19.92L351.49-19.92Q352.27-19.92 352.71-21.22L352.71-21.22 353.39-21.22Q353.22-19.97 353.21-18.38 353.2-16.8 353.3-14.11L353.3-14.11 352.59-14.11Q352.37-17.11 350.97-18.82 349.56-20.53 347.46-20.53L347.46-20.53Q345.8-20.53 344.81-19.59 343.82-18.65 343.82-16.72L343.82-16.72Q343.82-14.87 344.98-14 346.14-13.13 348.73-12.35L348.73-12.35Q351.54-11.52 352.82-10.18 354.1-8.84 354.1-6.27L354.1-6.27Q354.1-3.03 352.38-1.23 350.66 0.56 347.68 0.56Z" opacity="1" transform="matrix(1,0,0,1,0,0)" fill="#000000" class="slogan-text-1" data-fill-palette-color="secondary" id="text-1"></path></svg></g></svg></g></svg></g></svg></g><g transform="matrix(1,0,0,1,0,68.78263453051835)"><svg viewBox="0 0 271.86340507969516 257.38324228455195" height="257.38324228455195" width="271.86340507969516"><g><svg xmlns="http://www.w3.org/2000/svg" xmlns:xlink="http://www.w3.org/1999/xlink" version="1.1" x="0" y="0" viewBox="1.557 4.607777777777778 86.886 82.25822222222222" enable-background="new 0 0 90 90" xml:space="preserve" height="257.38324228455195" width="271.86340507969516" class="icon-icon-0" data-fill-palette-color="accent" id="icon-0"><path fill="#000000" d="M47.785 14.844S51.91 17.311 52.367 24.331C52.418 25.111 52.513 25.749 52.42 26.242 51.777 29.589 50.357 26.242 50.357 26.242S49.564 18.568 47.785 18.91V26.695S50.914 32.439 52.056 36.62H53.773V38.125H49.478V35.94S46.822 27.589 44.735 27.474C42.013 27.323 38.067 35.94 38.067 35.94V38.127H33.713V36.656H35.186L40.893 26.729V18.944S35.419 16.068 35.908 7.984C35.945 7.368 35.931 6.787 36.047 6.362 37.126 2.415 38.072 6.362 38.072 6.362S38.22 15.026 40.024 14.845H42.291S40.975 9.457 43.469 9.434C47.075 9.402 45.174 14.845 45.174 14.845z" data-fill-palette-color="accent"></path><polygon fill="#000000" points="1.557,86.866 7.466,79.426 15.458,68.702 17.314,64.105 20.379,58.415 27.601,50.756 30.666,43.533   31.481,37.869 56.271,37.869 58.241,43.97 62.589,49.441 67.977,63.448 73.887,66.731 79.576,75.924 88.443,86.866 " data-fill-palette-color="accent"></polygon></svg></g></svg></g></svg></g><defs></defs></svg><rect width="395.52" height="200.3504435458088" fill="none" stroke="none" visibility="hidden"></rect></g></svg></g></svg>